<?xml version="1.0" standalone="no"?>
<!DOCTYPE svg PUBLIC "-//W3C//DTD SVG 20010904//EN"
 "http://www.w3.org/TR/2001/REC-SVG-20010904/DTD/svg10.dtd">
<svg version="1.0" xmlns="http://www.w3.org/2000/svg"
 width="68.000000pt" height="26.000000pt" viewBox="0 0 68.000000 26.000000"
 preserveAspectRatio="xMidYMid meet">
<metadata>
Created by potrace 1.16, written by Peter Selinger 2001-2019
</metadata>
<g transform="translate(0.000000,26.000000) scale(0.100000,-0.100000)"
fill="#000000" stroke="none">
<path d="M70 166 c0 -59 2 -66 20 -66 15 0 20 7 20 25 0 19 5 25 23 25 13 0
28 5 35 12 9 9 12 6 12 -13 0 -14 5 -30 12 -37 15 -15 51 -15 66 0 15 15 15
61 0 76 -15 15 -55 16 -64 1 -4 -7 -11 -2 -18 13 -9 18 -21 24 -59 26 l-47 3
0 -65z"/>
</g>
</svg>
