<?xml version="1.0" standalone="no"?>
<!DOCTYPE svg PUBLIC "-//W3C//DTD SVG 20010904//EN"
 "http://www.w3.org/TR/2001/REC-SVG-20010904/DTD/svg10.dtd">
<svg version="1.0" xmlns="http://www.w3.org/2000/svg"
 width="500.000000pt" height="500.000000pt" viewBox="0 0 500.000000 500.000000"
 preserveAspectRatio="xMidYMid meet">
<metadata>
Created by potrace 1.16, written by Peter Selinger 2001-2019
</metadata>
<g transform="translate(0.000000,500.000000) scale(0.100000,-0.100000)"
fill="#000000" stroke="none">
<path d="M1360 2416 c0 -99 1 -106 20 -106 16 0 20 7 20 34 0 31 3 34 35 40
35 7 65 37 65 67 0 34 -33 59 -87 66 l-53 6 0 -107z"/>
<path d="M1772 2510 c-13 -6 -30 -26 -38 -47 -33 -78 9 -153 86 -153 77 0 119
75 86 153 -21 51 -75 70 -134 47z"/>
<path d="M2440 2416 c0 -99 1 -106 20 -106 17 0 19 8 22 73 l3 72 40 -72 c34
-63 44 -73 68 -73 l27 0 0 106 c0 95 -2 105 -17 102 -15 -3 -18 -15 -18 -71 0
-37 -2 -67 -5 -67 -3 0 -23 30 -46 68 -32 53 -46 68 -67 70 l-27 3 0 -105z"/>
<path d="M3242 2504 c-35 -24 -27 -72 18 -102 58 -39 40 -70 -27 -48 -19 6
-23 4 -23 -12 0 -37 86 -46 120 -12 33 33 22 65 -35 99 -48 28 -47 54 2 49 29
-2 39 1 41 13 5 29 -61 38 -96 13z"/>
</g>
</svg>
